<svg xmlns="http://www.w3.org/2000/svg" width="26" height="26"><g fill="none" fill-rule="evenodd"><path d="M0 0h26v26H0z"/><path fill="#4D4D4D" d="M24.99 12.28l.12.15.01.01a1 1 0 0 1-.1 1.23l-.03.02-3.54 3.54a1 1 0 0 1-1.41-1.42l.7-.7.36-.36 1.98-.99-1.56.22h-4.55a1 1 0 1 1 0-2h4.55l1.56.23-1.98-1-1.06-1.05a1 1 0 0 1 0-1.42 1 1 0 0 1 1.41 0l3.53 3.53zm-22.1 1.48l1.56.23H9a1 1 0 1 0 0-2H4.45l-1.56.22 1.98-1 .36-.35.7-.7a1 1 0 1 0-1.41-1.41L.99 12.28l-.02.01a1 1 0 0 0 .01 1.4l3.54 3.54a1 1 0 0 0 1.41 0 1 1 0 0 0 0-1.42l-1.06-1.06-1.98-.99z"/></g></svg>